<svg width="109" height="28" viewBox="0 0 109 28" fill="none" xmlns="http://www.w3.org/2000/svg">
<path d="M0 2C0 0.895431 0.89543 0 2 0H107C108.105 0 109 0.895431 109 2V26C109 27.1046 108.105 28 107 28H2C0.895432 28 0 27.1046 0 26V2Z" fill="#5CB85F"/>
<path d="M18.5908 15.8896C18.6546 16.3499 18.7799 16.694 18.9668 16.9219C19.3086 17.3366 19.8942 17.5439 20.7236 17.5439C21.2204 17.5439 21.6237 17.4893 21.9336 17.3799C22.5215 17.1702 22.8154 16.7806 22.8154 16.2109C22.8154 15.8783 22.6696 15.6208 22.3779 15.4385C22.0863 15.2607 21.6283 15.1035 21.0039 14.9668L19.9375 14.7275C18.8893 14.4906 18.1647 14.2331 17.7637 13.9551C17.0846 13.4902 16.7451 12.7633 16.7451 11.7744C16.7451 10.8721 17.0732 10.1224 17.7295 9.52539C18.3857 8.92839 19.3496 8.62988 20.6211 8.62988C21.6829 8.62988 22.5876 8.91243 23.335 9.47754C24.0869 10.0381 24.4811 10.8538 24.5176 11.9248H22.4941C22.4577 11.3187 22.1934 10.888 21.7012 10.6328C21.373 10.4642 20.9652 10.3799 20.4775 10.3799C19.9352 10.3799 19.5023 10.4893 19.1787 10.708C18.8551 10.9268 18.6934 11.2321 18.6934 11.624C18.6934 11.984 18.8529 12.2529 19.1719 12.4307C19.377 12.5492 19.8145 12.6882 20.4844 12.8477L22.2207 13.2646C22.9818 13.4469 23.556 13.6908 23.9434 13.9961C24.5449 14.4701 24.8457 15.1559 24.8457 16.0537C24.8457 16.9743 24.4925 17.7399 23.7861 18.3506C23.0843 18.9567 22.0908 19.2598 20.8057 19.2598C19.4932 19.2598 18.4609 18.9613 17.709 18.3643C16.957 17.7627 16.5811 16.9378 16.5811 15.8896H18.5908ZM29.1865 12.957C28.7354 12.957 28.3844 13.0983 28.1338 13.3809C27.8877 13.6634 27.7327 14.0462 27.6689 14.5293H30.6973C30.6654 14.0143 30.5081 13.6247 30.2256 13.3604C29.9476 13.0915 29.6012 12.957 29.1865 12.957ZM29.1865 11.3506C29.8063 11.3506 30.3646 11.4668 30.8613 11.6992C31.3581 11.9316 31.7682 12.2985 32.0918 12.7998C32.3835 13.2419 32.5726 13.7546 32.6592 14.3379C32.7093 14.6797 32.7298 15.1719 32.7207 15.8145H27.6211C27.6484 16.5618 27.8831 17.0859 28.3252 17.3867C28.5941 17.5736 28.9176 17.667 29.2959 17.667C29.6969 17.667 30.0228 17.5531 30.2734 17.3252C30.4102 17.2021 30.5309 17.0312 30.6357 16.8125H32.625C32.5749 17.2546 32.3447 17.7035 31.9346 18.1592C31.2965 18.8838 30.4033 19.2461 29.2549 19.2461C28.307 19.2461 27.4707 18.9408 26.7461 18.3301C26.0215 17.7194 25.6592 16.7259 25.6592 15.3496C25.6592 14.0599 25.985 13.071 26.6367 12.3828C27.293 11.6947 28.1429 11.3506 29.1865 11.3506ZM37.5537 11.5488H39.5293L40.6641 16.915L41.8262 11.5488H43.8564L41.6963 19H39.6934L38.5244 13.5723L37.3418 19H35.3184L33.2266 11.5488H35.3184L36.4805 16.8945L37.5537 11.5488ZM49.0449 15.377C48.9219 15.4544 48.7965 15.5182 48.6689 15.5684C48.5459 15.6139 48.375 15.6572 48.1562 15.6982L47.7188 15.7803C47.3086 15.8532 47.0146 15.9421 46.8369 16.0469C46.5361 16.2246 46.3857 16.5003 46.3857 16.874C46.3857 17.2067 46.4769 17.4482 46.6592 17.5986C46.846 17.7445 47.0716 17.8174 47.3359 17.8174C47.7552 17.8174 48.1403 17.6943 48.4912 17.4482C48.8467 17.2021 49.0312 16.7533 49.0449 16.1016V15.377ZM47.8623 14.4678C48.2223 14.4222 48.4798 14.3652 48.6348 14.2969C48.9128 14.1784 49.0518 13.9938 49.0518 13.7432C49.0518 13.4378 48.9447 13.2282 48.7305 13.1143C48.5208 12.9958 48.2109 12.9365 47.8008 12.9365C47.3405 12.9365 47.0146 13.0505 46.8232 13.2783C46.6865 13.4469 46.5954 13.6748 46.5498 13.9619H44.6699C44.7109 13.3102 44.8932 12.7747 45.2168 12.3555C45.7318 11.6992 46.6159 11.3711 47.8691 11.3711C48.6849 11.3711 49.4095 11.5329 50.043 11.8564C50.6764 12.18 50.9932 12.7907 50.9932 13.6885V17.1064C50.9932 17.3434 50.9977 17.6305 51.0068 17.9678C51.0205 18.223 51.0592 18.3962 51.123 18.4873C51.1868 18.5785 51.2826 18.6536 51.4102 18.7129V19H49.291C49.2318 18.8496 49.1908 18.7083 49.168 18.5762C49.1452 18.444 49.127 18.2936 49.1133 18.125C48.8444 18.4167 48.5345 18.665 48.1836 18.8701C47.7643 19.1117 47.2904 19.2324 46.7617 19.2324C46.0872 19.2324 45.529 19.041 45.0869 18.6582C44.6494 18.2708 44.4307 17.724 44.4307 17.0176C44.4307 16.1016 44.7839 15.4385 45.4902 15.0283C45.8776 14.805 46.4473 14.6455 47.1992 14.5498L47.8623 14.4678ZM63.4619 8.92383H66.4902V19H64.5283V12.1846C64.5283 11.9886 64.5306 11.7152 64.5352 11.3643C64.5397 11.0088 64.542 10.7354 64.542 10.5439L62.6348 19H60.5908L58.6973 10.5439C58.6973 10.7354 58.6995 11.0088 58.7041 11.3643C58.7087 11.7152 58.7109 11.9886 58.7109 12.1846V19H56.749V8.92383H59.8115L61.6436 16.8467L63.4619 8.92383ZM71.6309 17.626C72.2005 17.626 72.638 17.4232 72.9434 17.0176C73.2487 16.612 73.4014 16.0355 73.4014 15.2881C73.4014 14.5407 73.2487 13.9665 72.9434 13.5654C72.638 13.1598 72.2005 12.957 71.6309 12.957C71.0612 12.957 70.6214 13.1598 70.3115 13.5654C70.0062 13.9665 69.8535 14.5407 69.8535 15.2881C69.8535 16.0355 70.0062 16.612 70.3115 17.0176C70.6214 17.4232 71.0612 17.626 71.6309 17.626ZM75.4453 15.2881C75.4453 16.3818 75.1309 17.3184 74.502 18.0977C73.873 18.8724 72.9183 19.2598 71.6377 19.2598C70.3571 19.2598 69.4023 18.8724 68.7734 18.0977C68.1445 17.3184 67.8301 16.3818 67.8301 15.2881C67.8301 14.2126 68.1445 13.2806 68.7734 12.4922C69.4023 11.7038 70.3571 11.3096 71.6377 11.3096C72.9183 11.3096 73.873 11.7038 74.502 12.4922C75.1309 13.2806 75.4453 14.2126 75.4453 15.2881ZM80.873 11.3848C81.8529 11.3848 82.6185 11.738 83.1699 12.4443C83.7259 13.1507 84.0039 14.0622 84.0039 15.1787C84.0039 16.3363 83.7305 17.2956 83.1836 18.0566C82.6367 18.8177 81.8734 19.1982 80.8936 19.1982C80.2783 19.1982 79.7839 19.0752 79.4102 18.8291C79.1868 18.6833 78.9453 18.4281 78.6855 18.0635V19H76.7783V8.9375H78.7197V12.5195C78.9658 12.1732 79.237 11.9089 79.5332 11.7266C79.8841 11.4987 80.3307 11.3848 80.873 11.3848ZM80.374 17.5918C80.8753 17.5918 81.265 17.389 81.543 16.9834C81.821 16.5778 81.96 16.0446 81.96 15.3838C81.96 14.8551 81.8916 14.4176 81.7549 14.0713C81.4951 13.415 81.0166 13.0869 80.3193 13.0869C79.613 13.0869 79.1276 13.4082 78.8633 14.0508C78.7266 14.3926 78.6582 14.8346 78.6582 15.377C78.6582 16.015 78.7995 16.5436 79.082 16.9629C79.3646 17.3822 79.7952 17.5918 80.374 17.5918ZM87.4082 10.6602H85.4326V8.8623H87.4082V10.6602ZM85.4326 11.5488H87.4082V19H85.4326V11.5488ZM91.291 19H89.3428V8.92383H91.291V19Z" fill="white"/>
</svg>
